<?xml version="1.0" encoding="utf-8"?><!--Generator: Adobe Illustrator 22.0.0, SVG Export Plug-In . SVG Version: 6.00 Build 0)--><svg version="1.1" id="Layer_1" xmlns="http://www.w3.org/2000/svg" x="0" y="0" viewBox="0 0 347.5 250.2" xml:space="preserve"><path d="M0 0v249.9h347.6v-158c0 26.6-11.1 54-35 74.9-54.8 48-158.9 104.5-235.3 74.8-3-1.2-5.9-2.5-8.8-3.9-2.8-1.4-5.4-3-8-4.7-2.5-1.7-5-3.4-7.3-5.4-2.3-1.9-4.5-3.9-6.6-6-2.1-2.1-4.1-4.3-5.9-6.6-1.9-2.3-3.7-4.7-5.3-7.1-1.7-2.5-3.3-5-4.8-7.6-1.5-2.6-2.9-5.3-4.2-8-1.3-2.8-2.6-5.6-3.7-8.4-1.2-2.9-2.3-5.8-3.3-8.7-1-3-2-6-2.9-9-.9-3.1-1.7-6.2-2.5-9.3-.8-3.1-1.5-6.3-2.1-9.4-.7-3.2-1.3-6.4-1.8-9.6-.6-3.2-1.1-6.4-1.6-9.7s-.9-6.5-1.4-9.7c-.4-3.2-.8-6.5-1.2-9.7-.4-3.2-.7-6.4-1-9.6-.3-3.2-.6-6.3-.9-9.5l-.9-9.3c-.3-3-.6-6.1-.9-9.1-.3-3-.6-5.9-.9-8.8C1 59.7.7 56.8.4 54c-.1-1-.4-2-.3-3 0-1 .4-2.1.6-3 .2-.9.5-1.9.7-2.8.5-1.7 1-3.5 1.7-5.2 1.1-3 2.5-6 4.1-8.7 1.4-2.4 3.1-4.7 5.1-6.7 1.8-1.9 3.8-3.5 5.9-4.9 2.1-1.4 4.3-2.5 6.7-3.4 2.4-.9 4.8-1.5 7.3-2 2.6-.5 5.2-.7 7.9-.8 2.8-.1 5.5 0 8.3.1 2.9.2 5.8.5 8.6.9 3 .4 5.9.9 8.9 1.4 3 .5 6 1.2 9 1.8 3 .6 6 1.3 9 1.9 3 .6 5.9 1.3 8.9 1.8.4.1.8.2 1.2.2C152.8 32.9 197.2.1 253.3 0c59.4-.1 94.4 44.5 94.4 91.9V0H0z" fill="#FFFFFF"/></svg>